<svg xmlns="http://www.w3.org/2000/svg" viewBox="0 0 420 120" width="420" height="120" role="img" aria-label="bbloom">
  <defs>
    <linearGradient id="bbloomLockup" x1="0" y1="0" x2="1" y2="1">
      <stop offset="0" stop-color="#ec4899" />
      <stop offset="1" stop-color="#be185d" />
    </linearGradient>
  </defs>
  <rect x="12" y="12" width="96" height="96" rx="26" fill="url(#bbloomLockup)" />
  <g transform="translate(36 36) scale(2)">
    <path
      d="M12 3c2 0 3.4 1.6 3.4 3.4 1.8 0 3.4 1.4 3.4 3.4S17.2 13.2 15.4 13.2c0 1.8-1.4 3.4-3.4 3.4s-3.4-1.6-3.4-3.4C6.8 13.2 5.2 11.8 5.2 9.8S6.8 6.4 8.6 6.4C8.6 4.6 10 3 12 3Z"
      fill="#ffffff"
      opacity=".95"
    />
    <path d="M12 15v6" stroke="#ffffff" stroke-width="1.8" stroke-linecap="round" fill="none" />
  </g>
  <text
    x="128"
    y="60"
    dominant-baseline="central"
    font-family="'Plus Jakarta Sans', 'Segoe UI', system-ui, sans-serif"
    font-size="54"
    font-weight="800"
    letter-spacing="-1.6"
    fill="#12151f"
  >bbloom</text>
</svg>
